<?xml version="1.0" encoding="utf-8"?>
<svg xmlns="http://www.w3.org/2000/svg" xmlns:xlink="http://www.w3.org/1999/xlink" xml:space="preserve" width="1138.5" height="1082.31875" viewBox="0 0 1138.5 1082.31875"><defs><linearGradient id="pattern-gradient" x1="0%" y1="0%" x2="12%" y2="100%" gradientUnits="userSpaceOnUse"><stop offset="0%" stop-color="#d81b60"/><stop offset="100%" stop-color="#8900D5"/></linearGradient>
<mask id="qrmask"><g fill="#ffffff"><g transform="scale(47.4375)"><path d="M4.5,4.5L4.5,4.5L4.5,4.5l0,17.2c0,0.3,0.3,0.6,0.6,0.6h13.8c0.3,0,0.6-0.3,0.6-0.6V4.5H4.5z M19,18.6         c0,0.2-0.2,0.4-0.4,0.4H5.4C5.2,19,5,18.8,5,18.6V5.4C5,5.2,5.2,5,5.4,5h13.1C18.8,5,19,5.2,19,5.4V18.6z"/><path d="M19.1,0.1L4.2,1.7l0.3,2.8l14.9-1.6L19.1,0.1z M6.8,3.8L4.9,4l1.7-2.1l1.9-0.2L6.8,3.8z M10.5,3.4L8.6,3.6l1.7-2.1l1.9-0.2 L10.5,3.4z M14.2,3l-1.9,0.2L14,1.1l1.9-0.2L14.2,3z M18,2.6l-1.9,0.2l1.7-2.1l0.9-0.1l0.1,0.9L18,2.6z"/></g>
<g>
<g transform="translate(416.25,272.25) scale(3.09)"><path d="M6,6H3C1.3,6,0,4.7,0,3v0c0-1.7,1.3-3,3-3h3C6,0,6,6,6,6z"/></g>
<g transform="translate(434.25,272.25) scale(3.09)"><path d="M6,6H0V0l3,0c1.7,0,3,1.3,3,3V6z"/></g>
<g transform="translate(542.25,272.25) scale(3.09)"><path d="M6,6H3C1.3,6,0,4.7,0,3v0c0-1.7,1.3-3,3-3h3C6,0,6,6,6,6z"/></g>
<g transform="translate(560.25,272.25) scale(3.09)"><path d="M6,6H0V0l3,0c1.7,0,3,1.3,3,3V6z"/></g>
<g transform="translate(614.25,272.25) scale(3.09)"><path d="M6,6H3C1.3,6,0,4.7,0,3v0c0-1.7,1.3-3,3-3h3C6,0,6,6,6,6z"/></g>
<g transform="translate(632.25,272.25) scale(3.09)"><path d="M6,6H0V0l3,0c1.7,0,3,1.3,3,3V6z"/></g>
<g transform="translate(686.25,272.25) scale(3.09)"><circle cx="3" cy="3" r="3"/></g>
<g transform="translate(434.25,290.25) scale(3.09)"><rect width="6" height="6"/></g>
<g transform="translate(470.25,290.25) scale(3.09)"><path d="M6,6H0V3c0-1.7,1.3-3,3-3l3,0V6z"/></g>
<g transform="translate(488.25,290.25) scale(3.09)"><rect width="6" height="6"/></g>
<g transform="translate(506.25,290.25) scale(3.09)"><rect width="6" height="6"/></g>
<g transform="translate(524.25,290.25) scale(3.09)"><path d="M6,6H0V0l3,0c1.7,0,3,1.3,3,3V6z"/></g>
<g transform="translate(560.25,290.25) scale(3.09)"><path d="M3,6L3,6C1.3,6,0,4.7,0,3V0h6v3C6,4.7,4.7,6,3,6z"/></g>
<g transform="translate(596.25,290.25) scale(3.09)"><circle cx="3" cy="3" r="3"/></g>
<g transform="translate(632.25,290.25) scale(3.09)"><rect width="6" height="6"/></g>
<g transform="translate(650.25,290.25) scale(3.09)"><rect width="6" height="6"/></g>
<g transform="translate(668.25,290.25) scale(3.09)"><path d="M3,6H0V0l3,0c1.7,0,3,1.3,3,3v0C6,4.7,4.7,6,3,6z"/></g>
<g transform="translate(434.25,308.25) scale(3.09)"><path d="M3,6L3,6C1.3,6,0,4.7,0,3V0h6v3C6,4.7,4.7,6,3,6z"/></g>
<g transform="translate(470.25,308.25) scale(3.09)"><rect width="6" height="6"/></g>
<g transform="translate(488.25,308.25) scale(3.09)"><path d="M3,6H0V0l6,0v3C6,4.7,4.7,6,3,6z"/></g>
<g transform="translate(524.25,308.25) scale(3.09)"><path d="M6,6H3C1.3,6,0,4.7,0,3V0l6,0V6z"/></g>
<g transform="translate(542.25,308.25) scale(3.09)"><path d="M3,6H0V0l3,0c1.7,0,3,1.3,3,3v0C6,4.7,4.7,6,3,6z"/></g>
<g transform="translate(632.25,308.25) scale(3.09)"><path d="M6,6H3C1.3,6,0,4.7,0,3V0l6,0V6z"/></g>
<g transform="translate(650.25,308.25) scale(3.09)"><rect width="6" height="6"/></g>
<g transform="translate(470.25,326.25) scale(3.09)"><path d="M3,6L3,6C1.3,6,0,4.7,0,3V0h6v3C6,4.7,4.7,6,3,6z"/></g>
<g transform="translate(596.25,326.25) scale(3.09)"><circle cx="3" cy="3" r="3"/></g>
<g transform="translate(650.25,326.25) scale(3.09)"><path d="M3,6L3,6C1.3,6,0,4.7,0,3V0h6v3C6,4.7,4.7,6,3,6z"/></g>
<g transform="translate(686.25,326.25) scale(3.09)"><path d="M6,6H0V3c0-1.7,1.3-3,3-3l3,0V6z"/></g>
<g transform="translate(704.25,326.25) scale(3.09)"><path d="M3,6H0V0l3,0c1.7,0,3,1.3,3,3v0C6,4.7,4.7,6,3,6z"/></g>
<g transform="translate(416.25,344.25) scale(3.09)"><path d="M6,6H0V3c0-1.7,1.3-3,3-3l3,0V6z"/></g>
<g transform="translate(434.25,344.25) scale(3.09)"><path d="M3,6H0V0l3,0c1.7,0,3,1.3,3,3v0C6,4.7,4.7,6,3,6z"/></g>
<g transform="translate(488.25,344.25) scale(3.09)"><path d="M6,6H0V3c0-1.7,1.3-3,3-3h0c1.7,0,3,1.3,3,3V6z"/></g>
<g transform="translate(560.25,344.25) scale(3.09)"><path d="M6,6H0V3c0-1.7,1.3-3,3-3h0c1.7,0,3,1.3,3,3V6z"/></g>
<g transform="translate(632.25,344.25) scale(3.09)"><circle cx="3" cy="3" r="3"/></g>
<g transform="translate(686.25,344.25) scale(3.09)"><path d="M3,6L3,6C1.3,6,0,4.7,0,3V0h6v3C6,4.7,4.7,6,3,6z"/></g>
<g transform="translate(416.25,362.25) scale(3.09)"><rect width="6" height="6"/></g>
<g transform="translate(452.25,362.25) scale(3.09)"><path d="M6,6H0V3c0-1.7,1.3-3,3-3l3,0V6z"/></g>
<g transform="translate(470.25,362.25) scale(3.09)"><rect width="6" height="6"/></g>
<g transform="translate(488.25,362.25) scale(3.09)"><rect width="6" height="6"/></g>
<g transform="translate(506.25,362.25) scale(3.09)"><rect width="6" height="6"/></g>
<g transform="translate(524.25,362.25) scale(3.09)"><path d="M6,6H0V0l3,0c1.7,0,3,1.3,3,3V6z"/></g>
<g transform="translate(560.25,362.25) scale(3.09)"><rect width="6" height="6"/></g>
<g transform="translate(614.25,362.25) scale(3.09)"><circle cx="3" cy="3" r="3"/></g>
<g transform="translate(668.25,362.25) scale(3.09)"><path d="M6,6H0V3c0-1.7,1.3-3,3-3h0c1.7,0,3,1.3,3,3V6z"/></g>
<g transform="translate(416.25,380.25) scale(3.09)"><path d="M3,6L3,6C1.3,6,0,4.7,0,3V0h6v3C6,4.7,4.7,6,3,6z"/></g>
<g transform="translate(452.25,380.25) scale(3.09)"><rect width="6" height="6"/></g>
<g transform="translate(488.25,380.25) scale(3.09)"><rect width="6" height="6"/></g>
<g transform="translate(524.25,380.25) scale(3.09)"><rect width="6" height="6"/></g>
<g transform="translate(560.25,380.25) scale(3.09)"><rect width="6" height="6"/></g>
<g transform="translate(596.25,380.25) scale(3.09)"><path d="M6,6H0V3c0-1.7,1.3-3,3-3h0c1.7,0,3,1.3,3,3V6z"/></g>
<g transform="translate(632.25,380.25) scale(3.09)"><path d="M6,6H0V3c0-1.7,1.3-3,3-3h0c1.7,0,3,1.3,3,3V6z"/></g>
<g transform="translate(668.25,380.25) scale(3.09)"><path d="M3,6L3,6C1.3,6,0,4.7,0,3V0h6v3C6,4.7,4.7,6,3,6z"/></g>
<g transform="translate(704.25,380.25) scale(3.09)"><circle cx="3" cy="3" r="3"/></g>
<g transform="translate(434.25,398.25) scale(3.09)"><path d="M6,6H3C1.3,6,0,4.7,0,3v0c0-1.7,1.3-3,3-3h3C6,0,6,6,6,6z"/></g>
<g transform="translate(452.25,398.25) scale(3.09)"><rect width="6" height="6"/></g>
<g transform="translate(470.25,398.25) scale(3.09)"><rect width="6" height="6"/></g>
<g transform="translate(488.25,398.25) scale(3.09)"><rect width="6" height="6"/></g>
<g transform="translate(524.25,398.25) scale(3.09)"><rect width="6" height="6"/></g>
<g transform="translate(560.25,398.25) scale(3.09)"><path d="M3,6L3,6C1.3,6,0,4.7,0,3V0h6v3C6,4.7,4.7,6,3,6z"/></g>
<g transform="translate(596.25,398.25) scale(3.09)"><rect width="6" height="6"/></g>
<g transform="translate(614.25,398.25) scale(3.09)"><rect width="6" height="6"/></g>
<g transform="translate(632.25,398.25) scale(3.09)"><rect width="6" height="6"/></g>
<g transform="translate(650.25,398.25) scale(3.09)"><path d="M3,6H0V0l3,0c1.7,0,3,1.3,3,3v0C6,4.7,4.7,6,3,6z"/></g>
<g transform="translate(290.25,416.25) scale(3.09)"><path d="M6,6H3C1.3,6,0,4.7,0,3v0c0-1.7,1.3-3,3-3h3C6,0,6,6,6,6z"/></g>
<g transform="translate(308.25,416.25) scale(3.09)"><rect width="6" height="6"/></g>
<g transform="translate(326.25,416.25) scale(3.09)"><rect width="6" height="6"/></g>
<g transform="translate(344.25,416.25) scale(3.09)"><rect width="6" height="6"/></g>
<g transform="translate(362.25,416.25) scale(3.09)"><rect width="6" height="6"/></g>
<g transform="translate(380.25,416.25) scale(3.09)"><rect width="6" height="6"/></g>
<g transform="translate(398.25,416.25) scale(3.09)"><path d="M6,6H0V0l3,0c1.7,0,3,1.3,3,3V6z"/></g>
<g transform="translate(470.25,416.25) scale(3.09)"><path d="M6,6H3C1.3,6,0,4.7,0,3V0l6,0V6z"/></g>
<g transform="translate(488.25,416.25) scale(3.09)"><rect width="6" height="6"/></g>
<g transform="translate(524.25,416.25) scale(3.09)"><path d="M6,6H3C1.3,6,0,4.7,0,3V0l6,0V6z"/></g>
<g transform="translate(542.25,416.25) scale(3.09)"><path d="M6,6H0V0l3,0c1.7,0,3,1.3,3,3V6z"/></g>
<g transform="translate(578.25,416.25) scale(3.09)"><path d="M6,6H0V3c0-1.7,1.3-3,3-3l3,0V6z"/></g>
<g transform="translate(596.25,416.25) scale(3.09)"><rect width="6" height="6"/></g>
<g transform="translate(614.25,416.25) scale(3.09)"><rect width="6" height="6"/></g>
<g transform="translate(668.25,416.25) scale(3.09)"><path d="M6,6H3C1.3,6,0,4.7,0,3v0c0-1.7,1.3-3,3-3h3C6,0,6,6,6,6z"/></g>
<g transform="translate(686.25,416.25) scale(3.09)"><rect width="6" height="6"/></g>
<g transform="translate(704.25,416.25) scale(3.09)"><path d="M3,6H0V0l3,0c1.7,0,3,1.3,3,3v0C6,4.7,4.7,6,3,6z"/></g>
<g transform="translate(758.25,416.25) scale(3.09)"><path d="M6,6H0V3c0-1.7,1.3-3,3-3l3,0V6z"/></g>
<g transform="translate(776.25,416.25) scale(3.09)"><path d="M3,6H0V0l3,0c1.7,0,3,1.3,3,3v0C6,4.7,4.7,6,3,6z"/></g>
<g transform="translate(848.25,416.25) scale(3.09)"><path d="M6,6H0V3c0-1.7,1.3-3,3-3h0c1.7,0,3,1.3,3,3V6z"/></g>
<g transform="translate(326.25,434.25) scale(3.09)"><path d="M6,6H3C1.3,6,0,4.7,0,3V0l6,0V6z"/></g>
<g transform="translate(344.25,434.25) scale(3.09)"><rect width="6" height="6"/></g>
<g transform="translate(362.25,434.25) scale(3.09)"><path d="M3,6H0V0l6,0v3C6,4.7,4.7,6,3,6z"/></g>
<g transform="translate(398.25,434.25) scale(3.09)"><path d="M6,6H3C1.3,6,0,4.7,0,3V0l6,0V6z"/></g>
<g transform="translate(416.25,434.25) scale(3.09)"><rect width="6" height="6"/></g>
<g transform="translate(434.25,434.25) scale(3.09)"><path d="M3,6H0V0l3,0c1.7,0,3,1.3,3,3v0C6,4.7,4.7,6,3,6z"/></g>
<g transform="translate(488.25,434.25) scale(3.09)"><path d="M6,6H3C1.3,6,0,4.7,0,3V0l6,0V6z"/></g>
<g transform="translate(506.25,434.25) scale(3.09)"><path d="M6,6H0V0l3,0c1.7,0,3,1.3,3,3V6z"/></g>
<g transform="translate(542.25,434.25) scale(3.09)"><rect width="6" height="6"/></g>
<g transform="translate(578.25,434.25) scale(3.09)"><rect width="6" height="6"/></g>
<g transform="translate(596.25,434.25) scale(3.09)"><rect width="6" height="6"/></g>
<g transform="translate(614.25,434.25) scale(3.09)"><rect width="6" height="6"/></g>
<g transform="translate(632.25,434.25) scale(3.09)"><path d="M3,6H0V0l3,0c1.7,0,3,1.3,3,3v0C6,4.7,4.7,6,3,6z"/></g>
<g transform="translate(686.25,434.25) scale(3.09)"><path d="M3,6L3,6C1.3,6,0,4.7,0,3V0h6v3C6,4.7,4.7,6,3,6z"/></g>
<g transform="translate(740.25,434.25) scale(3.09)"><path d="M6,6H3C1.3,6,0,4.7,0,3v0c0-1.7,1.3-3,3-3h3C6,0,6,6,6,6z"/></g>
<g transform="translate(758.25,434.25) scale(3.09)"><path d="M3,6H0V0l6,0v3C6,4.7,4.7,6,3,6z"/></g>
<g transform="translate(794.25,434.25) scale(3.09)"><path d="M6,6H3C1.3,6,0,4.7,0,3v0c0-1.7,1.3-3,3-3h3C6,0,6,6,6,6z"/></g>
<g transform="translate(812.25,434.25) scale(3.09)"><path d="M6,6H0V0l3,0c1.7,0,3,1.3,3,3V6z"/></g>
<g transform="translate(848.25,434.25) scale(3.09)"><path d="M3,6L3,6C1.3,6,0,4.7,0,3V0h6v3C6,4.7,4.7,6,3,6z"/></g>
<g transform="translate(272.25,452.25) scale(3.09)"><path d="M6,6H3C1.3,6,0,4.7,0,3v0c0-1.7,1.3-3,3-3h3C6,0,6,6,6,6z"/></g>
<g transform="translate(290.25,452.25) scale(3.09)"><path d="M3,6H0V0l3,0c1.7,0,3,1.3,3,3v0C6,4.7,4.7,6,3,6z"/></g>
<g transform="translate(380.25,452.25) scale(3.09)"><circle cx="3" cy="3" r="3"/></g>
<g transform="translate(416.25,452.25) scale(3.09)"><path d="M3,6L3,6C1.3,6,0,4.7,0,3V0h6v3C6,4.7,4.7,6,3,6z"/></g>
<g transform="translate(452.25,452.25) scale(3.09)"><path d="M6,6H0V3c0-1.7,1.3-3,3-3h0c1.7,0,3,1.3,3,3V6z"/></g>
<g transform="translate(506.25,452.25) scale(3.09)"><path d="M3,6L3,6C1.3,6,0,4.7,0,3V0h6v3C6,4.7,4.7,6,3,6z"/></g>
<g transform="translate(542.25,452.25) scale(3.09)"><path d="M3,6L3,6C1.3,6,0,4.7,0,3V0h6v3C6,4.7,4.7,6,3,6z"/></g>
<g transform="translate(578.25,452.25) scale(3.09)"><rect width="6" height="6"/></g>
<g transform="translate(668.25,452.25) scale(3.09)"><circle cx="3" cy="3" r="3"/></g>
<g transform="translate(776.25,452.25) scale(3.09)"><path d="M6,6H0V3c0-1.7,1.3-3,3-3h0c1.7,0,3,1.3,3,3V6z"/></g>
<g transform="translate(812.25,452.25) scale(3.09)"><rect width="6" height="6"/></g>
<g transform="translate(326.25,470.25) scale(3.09)"><path d="M6,6H0V3c0-1.7,1.3-3,3-3l3,0V6z"/></g>
<g transform="translate(344.25,470.25) scale(3.09)"><path d="M6,6H0V0l3,0c1.7,0,3,1.3,3,3V6z"/></g>
<g transform="translate(434.25,470.25) scale(3.09)"><path d="M6,6H0V3c0-1.7,1.3-3,3-3l3,0V6z"/></g>
<g transform="translate(452.25,470.25) scale(3.09)"><rect width="6" height="6"/></g>
<g transform="translate(488.25,470.25) scale(3.09)"><circle cx="3" cy="3" r="3"/></g>
<g transform="translate(524.25,470.25) scale(3.09)"><circle cx="3" cy="3" r="3"/></g>
<g transform="translate(578.25,470.25) scale(3.09)"><path d="M6,6H3C1.3,6,0,4.7,0,3V0l6,0V6z"/></g>
<g transform="translate(596.25,470.25) scale(3.09)"><rect width="6" height="6"/></g>
<g transform="translate(614.25,470.25) scale(3.09)"><rect width="6" height="6"/></g>
<g transform="translate(632.25,470.25) scale(3.09)"><path d="M6,6H0V0l3,0c1.7,0,3,1.3,3,3V6z"/></g>
<g transform="translate(704.25,470.25) scale(3.09)"><path d="M6,6H0V3c0-1.7,1.3-3,3-3h0c1.7,0,3,1.3,3,3V6z"/></g>
<g transform="translate(776.25,470.25) scale(3.09)"><rect width="6" height="6"/></g>
<g transform="translate(794.25,470.25) scale(3.09)"><rect width="6" height="6"/></g>
<g transform="translate(812.25,470.25) scale(3.09)"><path d="M3,6H0V0l6,0v3C6,4.7,4.7,6,3,6z"/></g>
<g transform="translate(848.25,470.25) scale(3.09)"><circle cx="3" cy="3" r="3"/></g>
<g transform="translate(272.25,488.25) scale(3.09)"><path d="M6,6H0V3c0-1.7,1.3-3,3-3h0c1.7,0,3,1.3,3,3V6z"/></g>
<g transform="translate(308.25,488.25) scale(3.09)"><path d="M6,6H3C1.3,6,0,4.7,0,3v0c0-1.7,1.3-3,3-3h3C6,0,6,6,6,6z"/></g>
<g transform="translate(326.25,488.25) scale(3.09)"><rect width="6" height="6"/></g>
<g transform="translate(344.25,488.25) scale(3.09)"><rect width="6" height="6"/></g>
<g transform="translate(362.25,488.25) scale(3.09)"><rect width="6" height="6"/></g>
<g transform="translate(380.25,488.25) scale(3.09)"><rect width="6" height="6"/></g>
<g transform="translate(398.25,488.25) scale(3.09)"><rect width="6" height="6"/></g>
<g transform="translate(416.25,488.25) scale(3.09)"><rect width="6" height="6"/></g>
<g transform="translate(434.25,488.25) scale(3.09)"><rect width="6" height="6"/></g>
<g transform="translate(452.25,488.25) scale(3.09)"><rect width="6" height="6"/></g>
<g transform="translate(470.25,488.25) scale(3.09)"><path d="M6,6H0V0l3,0c1.7,0,3,1.3,3,3V6z"/></g>
<g transform="translate(506.25,488.25) scale(3.09)"><path d="M6,6H0V3c0-1.7,1.3-3,3-3h0c1.7,0,3,1.3,3,3V6z"/></g>
<g transform="translate(560.25,488.25) scale(3.09)"><circle cx="3" cy="3" r="3"/></g>
<g transform="translate(614.25,488.25) scale(3.09)"><path d="M6,6H3C1.3,6,0,4.7,0,3V0l6,0V6z"/></g>
<g transform="translate(632.25,488.25) scale(3.09)"><rect width="6" height="6"/></g>
<g transform="translate(650.25,488.25) scale(3.09)"><rect width="6" height="6"/></g>
<g transform="translate(668.25,488.25) scale(3.09)"><path d="M3,6H0V0l3,0c1.7,0,3,1.3,3,3v0C6,4.7,4.7,6,3,6z"/></g>
<g transform="translate(704.25,488.25) scale(3.09)"><path d="M3,6L3,6C1.3,6,0,4.7,0,3V0h6v3C6,4.7,4.7,6,3,6z"/></g>
<g transform="translate(776.25,488.25) scale(3.09)"><path d="M6,6H3C1.3,6,0,4.7,0,3V0l6,0V6z"/></g>
<g transform="translate(794.25,488.25) scale(3.09)"><rect width="6" height="6"/></g>
<g transform="translate(830.25,488.25) scale(3.09)"><path d="M6,6H0V3c0-1.7,1.3-3,3-3h0c1.7,0,3,1.3,3,3V6z"/></g>
<g transform="translate(272.25,506.25) scale(3.09)"><rect width="6" height="6"/></g>
<g transform="translate(452.25,506.25) scale(3.09)"><rect width="6" height="6"/></g>
<g transform="translate(470.25,506.25) scale(3.09)"><rect width="6" height="6"/></g>
<g transform="translate(506.25,506.25) scale(3.09)"><path d="M6,6H3C1.3,6,0,4.7,0,3V0l6,0V6z"/></g>
<g transform="translate(524.25,506.25) scale(3.09)"><rect width="6" height="6"/></g>
<g transform="translate(542.25,506.25) scale(3.09)"><path d="M6,6H0V0l3,0c1.7,0,3,1.3,3,3V6z"/></g>
<g transform="translate(578.25,506.25) scale(3.09)"><path d="M6,6H0V3c0-1.7,1.3-3,3-3l3,0V6z"/></g>
<g transform="translate(596.25,506.25) scale(3.09)"><path d="M3,6H0V0l3,0c1.7,0,3,1.3,3,3v0C6,4.7,4.7,6,3,6z"/></g>
<g transform="translate(650.25,506.25) scale(3.09)"><rect width="6" height="6"/></g>
<g transform="translate(686.25,506.25) scale(3.09)"><circle cx="3" cy="3" r="3"/></g>
<g transform="translate(722.25,506.25) scale(3.09)"><path d="M6,6H0V3c0-1.7,1.3-3,3-3l3,0V6z"/></g>
<g transform="translate(740.25,506.25) scale(3.09)"><path d="M6,6H0V0l3,0c1.7,0,3,1.3,3,3V6z"/></g>
<g transform="translate(794.25,506.25) scale(3.09)"><rect width="6" height="6"/></g>
<g transform="translate(830.25,506.25) scale(3.09)"><rect width="6" height="6"/></g>
<g transform="translate(848.25,506.25) scale(3.09)"><path d="M3,6H0V0l3,0c1.7,0,3,1.3,3,3v0C6,4.7,4.7,6,3,6z"/></g>
<g transform="translate(272.25,524.25) scale(3.09)"><rect width="6" height="6"/></g>
<g transform="translate(290.25,524.25) scale(3.09)"><path d="M6,6H0V0l3,0c1.7,0,3,1.3,3,3V6z"/></g>
<g transform="translate(344.25,524.25) scale(3.09)"><path d="M6,6H0V3c0-1.7,1.3-3,3-3l3,0V6z"/></g>
<g transform="translate(362.25,524.25) scale(3.09)"><rect width="6" height="6"/></g>
<g transform="translate(380.25,524.25) scale(3.09)"><rect width="6" height="6"/></g>
<g transform="translate(398.25,524.25) scale(3.09)"><rect width="6" height="6"/></g>
<g transform="translate(416.25,524.25) scale(3.09)"><rect width="6" height="6"/></g>
<g transform="translate(434.25,524.25) scale(3.09)"><rect width="6" height="6"/></g>
<g transform="translate(452.25,524.25) scale(3.09)"><rect width="6" height="6"/></g>
<g transform="translate(470.25,524.25) scale(3.09)"><rect width="6" height="6"/></g>
<g transform="translate(488.25,524.25) scale(3.09)"><path d="M3,6H0V0l3,0c1.7,0,3,1.3,3,3v0C6,4.7,4.7,6,3,6z"/></g>
<g transform="translate(542.25,524.25) scale(3.09)"><rect width="6" height="6"/></g>
<g transform="translate(578.25,524.25) scale(3.09)"><path d="M3,6L3,6C1.3,6,0,4.7,0,3V0h6v3C6,4.7,4.7,6,3,6z"/></g>
<g transform="translate(632.25,524.25) scale(3.09)"><path d="M6,6H3C1.3,6,0,4.7,0,3v0c0-1.7,1.3-3,3-3h3C6,0,6,6,6,6z"/></g>
<g transform="translate(650.25,524.25) scale(3.09)"><rect width="6" height="6"/></g>
<g transform="translate(668.25,524.25) scale(3.09)"><path d="M6,6H0V0l3,0c1.7,0,3,1.3,3,3V6z"/></g>
<g transform="translate(704.25,524.25) scale(3.09)"><path d="M6,6H3C1.3,6,0,4.7,0,3v0c0-1.7,1.3-3,3-3h3C6,0,6,6,6,6z"/></g>
<g transform="translate(722.25,524.25) scale(3.09)"><rect width="6" height="6"/></g>
<g transform="translate(740.25,524.25) scale(3.09)"><rect width="6" height="6"/></g>
<g transform="translate(776.25,524.25) scale(3.09)"><path d="M6,6H0V3c0-1.7,1.3-3,3-3l3,0V6z"/></g>
<g transform="translate(794.25,524.25) scale(3.09)"><rect width="6" height="6"/></g>
<g transform="translate(830.25,524.25) scale(3.09)"><path d="M3,6L3,6C1.3,6,0,4.7,0,3V0h6v3C6,4.7,4.7,6,3,6z"/></g>
<g transform="translate(272.25,542.25) scale(3.09)"><rect width="6" height="6"/></g>
<g transform="translate(290.25,542.25) scale(3.09)"><path d="M3,6H0V0l6,0v3C6,4.7,4.7,6,3,6z"/></g>
<g transform="translate(326.25,542.25) scale(3.09)"><path d="M6,6H3C1.3,6,0,4.7,0,3v0c0-1.7,1.3-3,3-3h3C6,0,6,6,6,6z"/></g>
<g transform="translate(344.25,542.25) scale(3.09)"><path d="M3,6H0V0l6,0v3C6,4.7,4.7,6,3,6z"/></g>
<g transform="translate(398.25,542.25) scale(3.09)"><path d="M3,6L3,6C1.3,6,0,4.7,0,3V0h6v3C6,4.7,4.7,6,3,6z"/></g>
<g transform="translate(434.25,542.25) scale(3.09)"><path d="M3,6L3,6C1.3,6,0,4.7,0,3V0h6v3C6,4.7,4.7,6,3,6z"/></g>
<g transform="translate(524.25,542.25) scale(3.09)"><path d="M6,6H3C1.3,6,0,4.7,0,3v0c0-1.7,1.3-3,3-3h3C6,0,6,6,6,6z"/></g>
<g transform="translate(542.25,542.25) scale(3.09)"><rect width="6" height="6"/></g>
<g transform="translate(560.25,542.25) scale(3.09)"><path d="M6,6H0V0l3,0c1.7,0,3,1.3,3,3V6z"/></g>
<g transform="translate(650.25,542.25) scale(3.09)"><path d="M6,6H3C1.3,6,0,4.7,0,3V0l6,0V6z"/></g>
<g transform="translate(668.25,542.25) scale(3.09)"><rect width="6" height="6"/></g>
<g transform="translate(722.25,542.25) scale(3.09)"><rect width="6" height="6"/></g>
<g transform="translate(740.25,542.25) scale(3.09)"><path d="M3,6H0V0l6,0v3C6,4.7,4.7,6,3,6z"/></g>
<g transform="translate(776.25,542.25) scale(3.09)"><rect width="6" height="6"/></g>
<g transform="translate(794.25,542.25) scale(3.09)"><rect width="6" height="6"/></g>
<g transform="translate(812.25,542.25) scale(3.09)"><path d="M3,6H0V0l3,0c1.7,0,3,1.3,3,3v0C6,4.7,4.7,6,3,6z"/></g>
<g transform="translate(272.25,560.25) scale(3.09)"><rect width="6" height="6"/></g>
<g transform="translate(308.25,560.25) scale(3.09)"><circle cx="3" cy="3" r="3"/></g>
<g transform="translate(380.25,560.25) scale(3.09)"><circle cx="3" cy="3" r="3"/></g>
<g transform="translate(416.25,560.25) scale(3.09)"><circle cx="3" cy="3" r="3"/></g>
<g transform="translate(452.25,560.25) scale(3.09)"><path d="M6,6H0V3c0-1.7,1.3-3,3-3l3,0V6z"/></g>
<g transform="translate(470.25,560.25) scale(3.09)"><rect width="6" height="6"/></g>
<g transform="translate(488.25,560.25) scale(3.09)"><rect width="6" height="6"/></g>
<g transform="translate(506.25,560.25) scale(3.09)"><path d="M6,6H0V0l3,0c1.7,0,3,1.3,3,3V6z"/></g>
<g transform="translate(560.25,560.25) scale(3.09)"><path d="M3,6L3,6C1.3,6,0,4.7,0,3V0h6v3C6,4.7,4.7,6,3,6z"/></g>
<g transform="translate(668.25,560.25) scale(3.09)"><rect width="6" height="6"/></g>
<g transform="translate(704.25,560.25) scale(3.09)"><path d="M6,6H3C1.3,6,0,4.7,0,3v0c0-1.7,1.3-3,3-3h3C6,0,6,6,6,6z"/></g>
<g transform="translate(722.25,560.25) scale(3.09)"><path d="M3,6H0V0l6,0v3C6,4.7,4.7,6,3,6z"/></g>
<g transform="translate(758.25,560.25) scale(3.09)"><path d="M6,6H0V3c0-1.7,1.3-3,3-3l3,0V6z"/></g>
<g transform="translate(776.25,560.25) scale(3.09)"><path d="M3,6H0V0l6,0v3C6,4.7,4.7,6,3,6z"/></g>
<g transform="translate(848.25,560.25) scale(3.09)"><path d="M6,6H0V3c0-1.7,1.3-3,3-3h0c1.7,0,3,1.3,3,3V6z"/></g>
<g transform="translate(272.25,578.25) scale(3.09)"><path d="M3,6L3,6C1.3,6,0,4.7,0,3V0h6v3C6,4.7,4.7,6,3,6z"/></g>
<g transform="translate(344.25,578.25) scale(3.09)"><path d="M6,6H0V3c0-1.7,1.3-3,3-3l3,0V6z"/></g>
<g transform="translate(362.25,578.25) scale(3.09)"><path d="M6,6H0V0l3,0c1.7,0,3,1.3,3,3V6z"/></g>
<g transform="translate(452.25,578.25) scale(3.09)"><path d="M6,6H3C1.3,6,0,4.7,0,3V0l6,0V6z"/></g>
<g transform="translate(470.25,578.25) scale(3.09)"><path d="M3,6H0V0l6,0v3C6,4.7,4.7,6,3,6z"/></g>
<g transform="translate(506.25,578.25) scale(3.09)"><path d="M3,6L3,6C1.3,6,0,4.7,0,3V0h6v3C6,4.7,4.7,6,3,6z"/></g>
<g transform="translate(578.25,578.25) scale(3.09)"><path d="M6,6H0V3c0-1.7,1.3-3,3-3h0c1.7,0,3,1.3,3,3V6z"/></g>
<g transform="translate(614.25,578.25) scale(3.09)"><path d="M6,6H3C1.3,6,0,4.7,0,3v0c0-1.7,1.3-3,3-3h3C6,0,6,6,6,6z"/></g>
<g transform="translate(632.25,578.25) scale(3.09)"><rect width="6" height="6"/></g>
<g transform="translate(650.25,578.25) scale(3.09)"><rect width="6" height="6"/></g>
<g transform="translate(668.25,578.25) scale(3.09)"><rect width="6" height="6"/></g>
<g transform="translate(686.25,578.25) scale(3.09)"><path d="M3,6H0V0l3,0c1.7,0,3,1.3,3,3v0C6,4.7,4.7,6,3,6z"/></g>
<g transform="translate(740.25,578.25) scale(3.09)"><path d="M6,6H3C1.3,6,0,4.7,0,3v0c0-1.7,1.3-3,3-3h3C6,0,6,6,6,6z"/></g>
<g transform="translate(758.25,578.25) scale(3.09)"><rect width="6" height="6"/></g>
<g transform="translate(794.25,578.25) scale(3.09)"><path d="M6,6H3C1.3,6,0,4.7,0,3v0c0-1.7,1.3-3,3-3h3C6,0,6,6,6,6z"/></g>
<g transform="translate(812.25,578.25) scale(3.09)"><path d="M6,6H0V0l3,0c1.7,0,3,1.3,3,3V6z"/></g>
<g transform="translate(848.25,578.25) scale(3.09)"><path d="M3,6L3,6C1.3,6,0,4.7,0,3V0h6v3C6,4.7,4.7,6,3,6z"/></g>
<g transform="translate(308.25,596.25) scale(3.09)"><path d="M6,6H0V3c0-1.7,1.3-3,3-3l3,0V6z"/></g>
<g transform="translate(326.25,596.25) scale(3.09)"><rect width="6" height="6"/></g>
<g transform="translate(344.25,596.25) scale(3.09)"><rect width="6" height="6"/></g>
<g transform="translate(362.25,596.25) scale(3.09)"><rect width="6" height="6"/></g>
<g transform="translate(380.25,596.25) scale(3.09)"><path d="M3,6H0V0l3,0c1.7,0,3,1.3,3,3v0C6,4.7,4.7,6,3,6z"/></g>
<g transform="translate(434.25,596.25) scale(3.09)"><circle cx="3" cy="3" r="3"/></g>
<g transform="translate(542.25,596.25) scale(3.09)"><circle cx="3" cy="3" r="3"/></g>
<g transform="translate(578.25,596.25) scale(3.09)"><rect width="6" height="6"/></g>
<g transform="translate(650.25,596.25) scale(3.09)"><rect width="6" height="6"/></g>
<g transform="translate(758.25,596.25) scale(3.09)"><rect width="6" height="6"/></g>
<g transform="translate(776.25,596.25) scale(3.09)"><path d="M6,6H0V0l3,0c1.7,0,3,1.3,3,3V6z"/></g>
<g transform="translate(812.25,596.25) scale(3.09)"><rect width="6" height="6"/></g>
<g transform="translate(830.25,596.25) scale(3.09)"><path d="M3,6H0V0l3,0c1.7,0,3,1.3,3,3v0C6,4.7,4.7,6,3,6z"/></g>
<g transform="translate(308.25,614.25) scale(3.09)"><path d="M6,6H3C1.3,6,0,4.7,0,3V0l6,0V6z"/></g>
<g transform="translate(326.25,614.25) scale(3.09)"><rect width="6" height="6"/></g>
<g transform="translate(452.25,614.25) scale(3.09)"><circle cx="3" cy="3" r="3"/></g>
<g transform="translate(488.25,614.25) scale(3.09)"><path d="M6,6H0V3c0-1.7,1.3-3,3-3l3,0V6z"/></g>
<g transform="translate(506.25,614.25) scale(3.09)"><rect width="6" height="6"/></g>
<g transform="translate(524.25,614.25) scale(3.09)"><path d="M6,6H0V0l3,0c1.7,0,3,1.3,3,3V6z"/></g>
<g transform="translate(578.25,614.25) scale(3.09)"><path d="M6,6H3C1.3,6,0,4.7,0,3V0l6,0V6z"/></g>
<g transform="translate(596.25,614.25) scale(3.09)"><rect width="6" height="6"/></g>
<g transform="translate(614.25,614.25) scale(3.09)"><rect width="6" height="6"/></g>
<g transform="translate(632.25,614.25) scale(3.09)"><rect width="6" height="6"/></g>
<g transform="translate(650.25,614.25) scale(3.09)"><rect width="6" height="6"/></g>
<g transform="translate(668.25,614.25) scale(3.09)"><path d="M3,6H0V0l3,0c1.7,0,3,1.3,3,3v0C6,4.7,4.7,6,3,6z"/></g>
<g transform="translate(722.25,614.25) scale(3.09)"><path d="M6,6H3C1.3,6,0,4.7,0,3v0c0-1.7,1.3-3,3-3h3C6,0,6,6,6,6z"/></g>
<g transform="translate(740.25,614.25) scale(3.09)"><rect width="6" height="6"/></g>
<g transform="translate(758.25,614.25) scale(3.09)"><rect width="6" height="6"/></g>
<g transform="translate(776.25,614.25) scale(3.09)"><rect width="6" height="6"/></g>
<g transform="translate(794.25,614.25) scale(3.09)"><rect width="6" height="6"/></g>
<g transform="translate(812.25,614.25) scale(3.09)"><path d="M3,6H0V0l6,0v3C6,4.7,4.7,6,3,6z"/></g>
<g transform="translate(272.25,632.25) scale(3.09)"><path d="M6,6H0V3c0-1.7,1.3-3,3-3h0c1.7,0,3,1.3,3,3V6z"/></g>
<g transform="translate(326.25,632.25) scale(3.09)"><rect width="6" height="6"/></g>
<g transform="translate(344.25,632.25) scale(3.09)"><path d="M3,6H0V0l3,0c1.7,0,3,1.3,3,3v0C6,4.7,4.7,6,3,6z"/></g>
<g transform="translate(380.25,632.25) scale(3.09)"><path d="M6,6H3C1.3,6,0,4.7,0,3v0c0-1.7,1.3-3,3-3h3C6,0,6,6,6,6z"/></g>
<g transform="translate(398.25,632.25) scale(3.09)"><rect width="6" height="6"/></g>
<g transform="translate(416.25,632.25) scale(3.09)"><path d="M6,6H0V0l3,0c1.7,0,3,1.3,3,3V6z"/></g>
<g transform="translate(488.25,632.25) scale(3.09)"><path d="M3,6L3,6C1.3,6,0,4.7,0,3V0h6v3C6,4.7,4.7,6,3,6z"/></g>
<g transform="translate(524.25,632.25) scale(3.09)"><rect width="6" height="6"/></g>
<g transform="translate(542.25,632.25) scale(3.09)"><rect width="6" height="6"/></g>
<g transform="translate(560.25,632.25) scale(3.09)"><path d="M3,6H0V0l3,0c1.7,0,3,1.3,3,3v0C6,4.7,4.7,6,3,6z"/></g>
<g transform="translate(596.25,632.25) scale(3.09)"><rect width="6" height="6"/></g>
<g transform="translate(614.25,632.25) scale(3.09)"><path d="M3,6H0V0l6,0v3C6,4.7,4.7,6,3,6z"/></g>
<g transform="translate(650.25,632.25) scale(3.09)"><rect width="6" height="6"/></g>
<g transform="translate(758.25,632.25) scale(3.09)"><rect width="6" height="6"/></g>
<g transform="translate(776.25,632.25) scale(3.09)"><rect width="6" height="6"/></g>
<g transform="translate(794.25,632.25) scale(3.09)"><path d="M3,6H0V0l6,0v3C6,4.7,4.7,6,3,6z"/></g>
<g transform="translate(830.25,632.25) scale(3.09)"><circle cx="3" cy="3" r="3"/></g>
<g transform="translate(272.25,650.25) scale(3.09)"><rect width="6" height="6"/></g>
<g transform="translate(290.25,650.25) scale(3.09)"><path d="M3,6H0V0l3,0c1.7,0,3,1.3,3,3v0C6,4.7,4.7,6,3,6z"/></g>
<g transform="translate(326.25,650.25) scale(3.09)"><rect width="6" height="6"/></g>
<g transform="translate(416.25,650.25) scale(3.09)"><rect width="6" height="6"/></g>
<g transform="translate(434.25,650.25) scale(3.09)"><rect width="6" height="6"/></g>
<g transform="translate(452.25,650.25) scale(3.09)"><rect width="6" height="6"/></g>
<g transform="translate(470.25,650.25) scale(3.09)"><path d="M3,6H0V0l3,0c1.7,0,3,1.3,3,3v0C6,4.7,4.7,6,3,6z"/></g>
<g transform="translate(506.25,650.25) scale(3.09)"><path d="M6,6H3C1.3,6,0,4.7,0,3v0c0-1.7,1.3-3,3-3h3C6,0,6,6,6,6z"/></g>
<g transform="translate(524.25,650.25) scale(3.09)"><rect width="6" height="6"/></g>
<g transform="translate(578.25,650.25) scale(3.09)"><path d="M6,6H3C1.3,6,0,4.7,0,3v0c0-1.7,1.3-3,3-3h3C6,0,6,6,6,6z"/></g>
<g transform="translate(596.25,650.25) scale(3.09)"><path d="M3,6H0V0l6,0v3C6,4.7,4.7,6,3,6z"/></g>
<g transform="translate(632.25,650.25) scale(3.09)"><path d="M6,6H3C1.3,6,0,4.7,0,3v0c0-1.7,1.3-3,3-3h3C6,0,6,6,6,6z"/></g>
<g transform="translate(650.25,650.25) scale(3.09)"><rect width="6" height="6"/></g>
<g transform="translate(668.25,650.25) scale(3.09)"><rect width="6" height="6"/></g>
<g transform="translate(686.25,650.25) scale(3.09)"><path d="M3,6H0V0l3,0c1.7,0,3,1.3,3,3v0C6,4.7,4.7,6,3,6z"/></g>
<g transform="translate(740.25,650.25) scale(3.09)"><path d="M6,6H3C1.3,6,0,4.7,0,3v0c0-1.7,1.3-3,3-3h3C6,0,6,6,6,6z"/></g>
<g transform="translate(758.25,650.25) scale(3.09)"><path d="M3,6H0V0l6,0v3C6,4.7,4.7,6,3,6z"/></g>
<g transform="translate(812.25,650.25) scale(3.09)"><circle cx="3" cy="3" r="3"/></g>
<g transform="translate(848.25,650.25) scale(3.09)"><circle cx="3" cy="3" r="3"/></g>
<g transform="translate(272.25,668.25) scale(3.09)"><rect width="6" height="6"/></g>
<g transform="translate(308.25,668.25) scale(3.09)"><path d="M6,6H0V3c0-1.7,1.3-3,3-3l3,0V6z"/></g>
<g transform="translate(326.25,668.25) scale(3.09)"><rect width="6" height="6"/></g>
<g transform="translate(344.25,668.25) scale(3.09)"><path d="M3,6H0V0l3,0c1.7,0,3,1.3,3,3v0C6,4.7,4.7,6,3,6z"/></g>
<g transform="translate(380.25,668.25) scale(3.09)"><path d="M6,6H3C1.3,6,0,4.7,0,3v0c0-1.7,1.3-3,3-3h3C6,0,6,6,6,6z"/></g>
<g transform="translate(398.25,668.25) scale(3.09)"><rect width="6" height="6"/></g>
<g transform="translate(416.25,668.25) scale(3.09)"><rect width="6" height="6"/></g>
<g transform="translate(434.25,668.25) scale(3.09)"><rect width="6" height="6"/></g>
<g transform="translate(452.25,668.25) scale(3.09)"><rect width="6" height="6"/></g>
<g transform="translate(524.25,668.25) scale(3.09)"><rect width="6" height="6"/></g>
<g transform="translate(542.25,668.25) scale(3.09)"><rect width="6" height="6"/></g>
<g transform="translate(560.25,668.25) scale(3.09)"><path d="M3,6H0V0l3,0c1.7,0,3,1.3,3,3v0C6,4.7,4.7,6,3,6z"/></g>
<g transform="translate(614.25,668.25) scale(3.09)"><path d="M6,6H0V3c0-1.7,1.3-3,3-3h0c1.7,0,3,1.3,3,3V6z"/></g>
<g transform="translate(650.25,668.25) scale(3.09)"><rect width="6" height="6"/></g>
<g transform="translate(668.25,668.25) scale(3.09)"><path d="M3,6H0V0l6,0v3C6,4.7,4.7,6,3,6z"/></g>
<g transform="translate(704.25,668.25) scale(3.09)"><path d="M6,6H0V3c0-1.7,1.3-3,3-3l3,0V6z"/></g>
<g transform="translate(722.25,668.25) scale(3.09)"><path d="M3,6H0V0l3,0c1.7,0,3,1.3,3,3v0C6,4.7,4.7,6,3,6z"/></g>
<g transform="translate(776.25,668.25) scale(3.09)"><path d="M6,6H3C1.3,6,0,4.7,0,3v0c0-1.7,1.3-3,3-3h3C6,0,6,6,6,6z"/></g>
<g transform="translate(794.25,668.25) scale(3.09)"><path d="M6,6H0V0l3,0c1.7,0,3,1.3,3,3V6z"/></g>
<g transform="translate(830.25,668.25) scale(3.09)"><path d="M6,6H0V3c0-1.7,1.3-3,3-3h0c1.7,0,3,1.3,3,3V6z"/></g>
<g transform="translate(272.25,686.25) scale(3.09)"><rect width="6" height="6"/></g>
<g transform="translate(308.25,686.25) scale(3.09)"><rect width="6" height="6"/></g>
<g transform="translate(326.25,686.25) scale(3.09)"><rect width="6" height="6"/></g>
<g transform="translate(398.25,686.25) scale(3.09)"><rect width="6" height="6"/></g>
<g transform="translate(434.25,686.25) scale(3.09)"><path d="M6,6H3C1.3,6,0,4.7,0,3V0l6,0V6z"/></g>
<g transform="translate(452.25,686.25) scale(3.09)"><rect width="6" height="6"/></g>
<g transform="translate(470.25,686.25) scale(3.09)"><path d="M3,6H0V0l3,0c1.7,0,3,1.3,3,3v0C6,4.7,4.7,6,3,6z"/></g>
<g transform="translate(524.25,686.25) scale(3.09)"><path d="M3,6L3,6C1.3,6,0,4.7,0,3V0h6v3C6,4.7,4.7,6,3,6z"/></g>
<g transform="translate(578.25,686.25) scale(3.09)"><path d="M6,6H0V3c0-1.7,1.3-3,3-3h0c1.7,0,3,1.3,3,3V6z"/></g>
<g transform="translate(614.25,686.25) scale(3.09)"><rect width="6" height="6"/></g>
<g transform="translate(632.25,686.25) scale(3.09)"><rect width="6" height="6"/></g>
<g transform="translate(650.25,686.25) scale(3.09)"><path d="M3,6H0V0l6,0v3C6,4.7,4.7,6,3,6z"/></g>
<g transform="translate(704.25,686.25) scale(3.09)"><rect width="6" height="6"/></g>
<g transform="translate(758.25,686.25) scale(3.09)"><path d="M6,6H0V3c0-1.7,1.3-3,3-3h0c1.7,0,3,1.3,3,3V6z"/></g>
<g transform="translate(794.25,686.25) scale(3.09)"><rect width="6" height="6"/></g>
<g transform="translate(812.25,686.25) scale(3.09)"><rect width="6" height="6"/></g>
<g transform="translate(830.25,686.25) scale(3.09)"><rect width="6" height="6"/></g>
<g transform="translate(272.25,704.25) scale(3.09)"><path d="M3,6L3,6C1.3,6,0,4.7,0,3V0h6v3C6,4.7,4.7,6,3,6z"/></g>
<g transform="translate(308.25,704.25) scale(3.09)"><path d="M6,6H3C1.3,6,0,4.7,0,3V0l6,0V6z"/></g>
<g transform="translate(326.25,704.25) scale(3.09)"><rect width="6" height="6"/></g>
<g transform="translate(344.25,704.25) scale(3.09)"><rect width="6" height="6"/></g>
<g transform="translate(362.25,704.25) scale(3.09)"><rect width="6" height="6"/></g>
<g transform="translate(380.25,704.25) scale(3.09)"><rect width="6" height="6"/></g>
<g transform="translate(398.25,704.25) scale(3.09)"><path d="M3,6H0V0l6,0v3C6,4.7,4.7,6,3,6z"/></g>
<g transform="translate(452.25,704.25) scale(3.09)"><path d="M3,6L3,6C1.3,6,0,4.7,0,3V0h6v3C6,4.7,4.7,6,3,6z"/></g>
<g transform="translate(578.25,704.25) scale(3.09)"><path d="M6,6H3C1.3,6,0,4.7,0,3V0l6,0V6z"/></g>
<g transform="translate(596.25,704.25) scale(3.09)"><rect width="6" height="6"/></g>
<g transform="translate(614.25,704.25) scale(3.09)"><rect width="6" height="6"/></g>
<g transform="translate(668.25,704.25) scale(3.09)"><path d="M6,6H3C1.3,6,0,4.7,0,3v0c0-1.7,1.3-3,3-3h3C6,0,6,6,6,6z"/></g>
<g transform="translate(686.25,704.25) scale(3.09)"><rect width="6" height="6"/></g>
<g transform="translate(704.25,704.25) scale(3.09)"><rect width="6" height="6"/></g>
<g transform="translate(722.25,704.25) scale(3.09)"><rect width="6" height="6"/></g>
<g transform="translate(740.25,704.25) scale(3.09)"><rect width="6" height="6"/></g>
<g transform="translate(758.25,704.25) scale(3.09)"><rect width="6" height="6"/></g>
<g transform="translate(776.25,704.25) scale(3.09)"><rect width="6" height="6"/></g>
<g transform="translate(794.25,704.25) scale(3.09)"><path d="M3,6H0V0l6,0v3C6,4.7,4.7,6,3,6z"/></g>
<g transform="translate(830.25,704.25) scale(3.09)"><rect width="6" height="6"/></g>
<g transform="translate(416.25,722.25) scale(3.09)"><path d="M6,6H0V3c0-1.7,1.3-3,3-3l3,0V6z"/></g>
<g transform="translate(434.25,722.25) scale(3.09)"><path d="M3,6H0V0l3,0c1.7,0,3,1.3,3,3v0C6,4.7,4.7,6,3,6z"/></g>
<g transform="translate(488.25,722.25) scale(3.09)"><path d="M6,6H0V3c0-1.7,1.3-3,3-3h0c1.7,0,3,1.3,3,3V6z"/></g>
<g transform="translate(524.25,722.25) scale(3.09)"><path d="M6,6H0V3c0-1.7,1.3-3,3-3l3,0V6z"/></g>
<g transform="translate(542.25,722.25) scale(3.09)"><path d="M3,6H0V0l3,0c1.7,0,3,1.3,3,3v0C6,4.7,4.7,6,3,6z"/></g>
<g transform="translate(596.25,722.25) scale(3.09)"><path d="M6,6H3C1.3,6,0,4.7,0,3V0l6,0V6z"/></g>
<g transform="translate(614.25,722.25) scale(3.09)"><path d="M3,6H0V0l6,0v3C6,4.7,4.7,6,3,6z"/></g>
<g transform="translate(704.25,722.25) scale(3.09)"><rect width="6" height="6"/></g>
<g transform="translate(776.25,722.25) scale(3.09)"><rect width="6" height="6"/></g>
<g transform="translate(812.25,722.25) scale(3.09)"><path d="M6,6H0V3c0-1.7,1.3-3,3-3l3,0V6z"/></g>
<g transform="translate(830.25,722.25) scale(3.09)"><rect width="6" height="6"/></g>
<g transform="translate(848.25,722.25) scale(3.09)"><path d="M3,6H0V0l3,0c1.7,0,3,1.3,3,3v0C6,4.7,4.7,6,3,6z"/></g>
<g transform="translate(416.25,740.25) scale(3.09)"><rect width="6" height="6"/></g>
<g transform="translate(488.25,740.25) scale(3.09)"><rect width="6" height="6"/></g>
<g transform="translate(506.25,740.25) scale(3.09)"><rect width="6" height="6"/></g>
<g transform="translate(524.25,740.25) scale(3.09)"><rect width="6" height="6"/></g>
<g transform="translate(578.25,740.25) scale(3.09)"><path d="M6,6H0V3c0-1.7,1.3-3,3-3h0c1.7,0,3,1.3,3,3V6z"/></g>
<g transform="translate(632.25,740.25) scale(3.09)"><path d="M6,6H0V3c0-1.7,1.3-3,3-3h0c1.7,0,3,1.3,3,3V6z"/></g>
<g transform="translate(668.25,740.25) scale(3.09)"><path d="M6,6H3C1.3,6,0,4.7,0,3v0c0-1.7,1.3-3,3-3h3C6,0,6,6,6,6z"/></g>
<g transform="translate(686.25,740.25) scale(3.09)"><rect width="6" height="6"/></g>
<g transform="translate(704.25,740.25) scale(3.09)"><rect width="6" height="6"/></g>
<g transform="translate(740.25,740.25) scale(3.09)"><circle cx="3" cy="3" r="3"/></g>
<g transform="translate(776.25,740.25) scale(3.09)"><rect width="6" height="6"/></g>
<g transform="translate(812.25,740.25) scale(3.09)"><rect width="6" height="6"/></g>
<g transform="translate(830.25,740.25) scale(3.09)"><rect width="6" height="6"/></g>
<g transform="translate(416.25,758.25) scale(3.09)"><rect width="6" height="6"/></g>
<g transform="translate(470.25,758.25) scale(3.09)"><path d="M6,6H0V3c0-1.7,1.3-3,3-3l3,0V6z"/></g>
<g transform="translate(488.25,758.25) scale(3.09)"><rect width="6" height="6"/></g>
<g transform="translate(506.25,758.25) scale(3.09)"><rect width="6" height="6"/></g>
<g transform="translate(524.25,758.25) scale(3.09)"><path d="M3,6H0V0l6,0v3C6,4.7,4.7,6,3,6z"/></g>
<g transform="translate(578.25,758.25) scale(3.09)"><rect width="6" height="6"/></g>
<g transform="translate(632.25,758.25) scale(3.09)"><rect width="6" height="6"/></g>
<g transform="translate(686.25,758.25) scale(3.09)"><path d="M6,6H3C1.3,6,0,4.7,0,3V0l6,0V6z"/></g>
<g transform="translate(704.25,758.25) scale(3.09)"><rect width="6" height="6"/></g>
<g transform="translate(776.25,758.25) scale(3.09)"><rect width="6" height="6"/></g>
<g transform="translate(794.25,758.25) scale(3.09)"><rect width="6" height="6"/></g>
<g transform="translate(812.25,758.25) scale(3.09)"><rect width="6" height="6"/></g>
<g transform="translate(830.25,758.25) scale(3.09)"><rect width="6" height="6"/></g>
<g transform="translate(848.25,758.25) scale(3.09)"><path d="M6,6H0V0l3,0c1.7,0,3,1.3,3,3V6z"/></g>
<g transform="translate(416.25,776.25) scale(3.09)"><rect width="6" height="6"/></g>
<g transform="translate(434.25,776.25) scale(3.09)"><rect width="6" height="6"/></g>
<g transform="translate(452.25,776.25) scale(3.09)"><rect width="6" height="6"/></g>
<g transform="translate(470.25,776.25) scale(3.09)"><rect width="6" height="6"/></g>
<g transform="translate(488.25,776.25) scale(3.09)"><rect width="6" height="6"/></g>
<g transform="translate(578.25,776.25) scale(3.09)"><rect width="6" height="6"/></g>
<g transform="translate(632.25,776.25) scale(3.09)"><path d="M6,6H3C1.3,6,0,4.7,0,3V0l6,0V6z"/></g>
<g transform="translate(650.25,776.25) scale(3.09)"><rect width="6" height="6"/></g>
<g transform="translate(668.25,776.25) scale(3.09)"><path d="M3,6H0V0l3,0c1.7,0,3,1.3,3,3v0C6,4.7,4.7,6,3,6z"/></g>
<g transform="translate(704.25,776.25) scale(3.09)"><path d="M6,6H3C1.3,6,0,4.7,0,3V0l6,0V6z"/></g>
<g transform="translate(722.25,776.25) scale(3.09)"><rect width="6" height="6"/></g>
<g transform="translate(740.25,776.25) scale(3.09)"><rect width="6" height="6"/></g>
<g transform="translate(758.25,776.25) scale(3.09)"><rect width="6" height="6"/></g>
<g transform="translate(776.25,776.25) scale(3.09)"><rect width="6" height="6"/></g>
<g transform="translate(794.25,776.25) scale(3.09)"><path d="M3,6H0V0l6,0v3C6,4.7,4.7,6,3,6z"/></g>
<g transform="translate(830.25,776.25) scale(3.09)"><path d="M6,6H3C1.3,6,0,4.7,0,3V0l6,0V6z"/></g>
<g transform="translate(848.25,776.25) scale(3.09)"><rect width="6" height="6"/></g>
<g transform="translate(416.25,794.25) scale(3.09)"><rect width="6" height="6"/></g>
<g transform="translate(452.25,794.25) scale(3.09)"><path d="M6,6H3C1.3,6,0,4.7,0,3V0l6,0V6z"/></g>
<g transform="translate(470.25,794.25) scale(3.09)"><rect width="6" height="6"/></g>
<g transform="translate(488.25,794.25) scale(3.09)"><path d="M3,6H0V0l6,0v3C6,4.7,4.7,6,3,6z"/></g>
<g transform="translate(524.25,794.25) scale(3.09)"><path d="M6,6H0V3c0-1.7,1.3-3,3-3h0c1.7,0,3,1.3,3,3V6z"/></g>
<g transform="translate(560.25,794.25) scale(3.09)"><path d="M6,6H0V3c0-1.7,1.3-3,3-3l3,0V6z"/></g>
<g transform="translate(578.25,794.25) scale(3.09)"><rect width="6" height="6"/></g>
<g transform="translate(596.25,794.25) scale(3.09)"><path d="M3,6H0V0l3,0c1.7,0,3,1.3,3,3v0C6,4.7,4.7,6,3,6z"/></g>
<g transform="translate(650.25,794.25) scale(3.09)"><path d="M3,6L3,6C1.3,6,0,4.7,0,3V0h6v3C6,4.7,4.7,6,3,6z"/></g>
<g transform="translate(722.25,794.25) scale(3.09)"><rect width="6" height="6"/></g>
<g transform="translate(776.25,794.25) scale(3.09)"><path d="M3,6L3,6C1.3,6,0,4.7,0,3V0h6v3C6,4.7,4.7,6,3,6z"/></g>
<g transform="translate(812.25,794.25) scale(3.09)"><path d="M6,6H0V3c0-1.7,1.3-3,3-3h0c1.7,0,3,1.3,3,3V6z"/></g>
<g transform="translate(848.25,794.25) scale(3.09)"><path d="M3,6L3,6C1.3,6,0,4.7,0,3V0h6v3C6,4.7,4.7,6,3,6z"/></g>
<g transform="translate(416.25,812.25) scale(3.09)"><rect width="6" height="6"/></g>
<g transform="translate(506.25,812.25) scale(3.09)"><path d="M6,6H3C1.3,6,0,4.7,0,3v0c0-1.7,1.3-3,3-3h3C6,0,6,6,6,6z"/></g>
<g transform="translate(524.25,812.25) scale(3.09)"><rect width="6" height="6"/></g>
<g transform="translate(542.25,812.25) scale(3.09)"><rect width="6" height="6"/></g>
<g transform="translate(560.25,812.25) scale(3.09)"><path d="M3,6H0V0l6,0v3C6,4.7,4.7,6,3,6z"/></g>
<g transform="translate(632.25,812.25) scale(3.09)"><circle cx="3" cy="3" r="3"/></g>
<g transform="translate(704.25,812.25) scale(3.09)"><path d="M6,6H3C1.3,6,0,4.7,0,3v0c0-1.7,1.3-3,3-3h3C6,0,6,6,6,6z"/></g>
<g transform="translate(722.25,812.25) scale(3.09)"><rect width="6" height="6"/></g>
<g transform="translate(740.25,812.25) scale(3.09)"><rect width="6" height="6"/></g>
<g transform="translate(758.25,812.25) scale(3.09)"><path d="M3,6H0V0l3,0c1.7,0,3,1.3,3,3v0C6,4.7,4.7,6,3,6z"/></g>
<g transform="translate(812.25,812.25) scale(3.09)"><rect width="6" height="6"/></g>
<g transform="translate(416.25,830.25) scale(3.09)"><path d="M3,6L3,6C1.3,6,0,4.7,0,3V0h6v3C6,4.7,4.7,6,3,6z"/></g>
<g transform="translate(524.25,830.25) scale(3.09)"><rect width="6" height="6"/></g>
<g transform="translate(578.25,830.25) scale(3.09)"><path d="M6,6H0V3c0-1.7,1.3-3,3-3l3,0V6z"/></g>
<g transform="translate(596.25,830.25) scale(3.09)"><path d="M6,6H0V0l3,0c1.7,0,3,1.3,3,3V6z"/></g>
<g transform="translate(650.25,830.25) scale(3.09)"><circle cx="3" cy="3" r="3"/></g>
<g transform="translate(722.25,830.25) scale(3.09)"><path d="M6,6H3C1.3,6,0,4.7,0,3V0l6,0V6z"/></g>
<g transform="translate(740.25,830.25) scale(3.09)"><rect width="6" height="6"/></g>
<g transform="translate(776.25,830.25) scale(3.09)"><path d="M6,6H3C1.3,6,0,4.7,0,3v0c0-1.7,1.3-3,3-3h3C6,0,6,6,6,6z"/></g>
<g transform="translate(794.25,830.25) scale(3.09)"><rect width="6" height="6"/></g>
<g transform="translate(812.25,830.25) scale(3.09)"><path d="M3,6H0V0l6,0v3C6,4.7,4.7,6,3,6z"/></g>
<g transform="translate(434.25,848.25) scale(3.09)"><path d="M6,6H3C1.3,6,0,4.7,0,3v0c0-1.7,1.3-3,3-3h3C6,0,6,6,6,6z"/></g>
<g transform="translate(452.25,848.25) scale(3.09)"><rect width="6" height="6"/></g>
<g transform="translate(470.25,848.25) scale(3.09)"><rect width="6" height="6"/></g>
<g transform="translate(488.25,848.25) scale(3.09)"><path d="M3,6H0V0l3,0c1.7,0,3,1.3,3,3v0C6,4.7,4.7,6,3,6z"/></g>
<g transform="translate(524.25,848.25) scale(3.09)"><path d="M3,6L3,6C1.3,6,0,4.7,0,3V0h6v3C6,4.7,4.7,6,3,6z"/></g>
<g transform="translate(560.25,848.25) scale(3.09)"><path d="M6,6H3C1.3,6,0,4.7,0,3v0c0-1.7,1.3-3,3-3h3C6,0,6,6,6,6z"/></g>
<g transform="translate(578.25,848.25) scale(3.09)"><rect width="6" height="6"/></g>
<g transform="translate(596.25,848.25) scale(3.09)"><path d="M3,6H0V0l6,0v3C6,4.7,4.7,6,3,6z"/></g>
<g transform="translate(668.25,848.25) scale(3.09)"><path d="M6,6H3C1.3,6,0,4.7,0,3v0c0-1.7,1.3-3,3-3h3C6,0,6,6,6,6z"/></g>
<g transform="translate(686.25,848.25) scale(3.09)"><rect width="6" height="6"/></g>
<g transform="translate(704.25,848.25) scale(3.09)"><path d="M3,6H0V0l3,0c1.7,0,3,1.3,3,3v0C6,4.7,4.7,6,3,6z"/></g>
<g transform="translate(740.25,848.25) scale(3.09)"><path d="M6,6H3C1.3,6,0,4.7,0,3V0l6,0V6z"/></g>
<g transform="translate(758.25,848.25) scale(3.09)"><path d="M3,6H0V0l3,0c1.7,0,3,1.3,3,3v0C6,4.7,4.7,6,3,6z"/></g>
<g transform="translate(830.25,848.25) scale(3.09)"><circle cx="3" cy="3" r="3"/></g>
<g transform="translate(272.25,272.25)"><g transform="scale(9)"><path d="M0,7L0,7c0,3.9,3.1,7,7,7h0c3.9,0,7-3.1,7-7v0c0-3.9-3.1-7-7-7h0C3.1,0,0,3.1,0,7z M7,12L7,12c-2.8,0-5-2.2-5-5v0 c0-2.8,2.2-5,5-5h0c2.8,0,5,2.2,5,5v0C12,9.8,9.8,12,7,12z"/></g></g>
<g transform="translate(740.25,272.25)"><g transform="scale(9)"><path d="M0,7L0,7c0,3.9,3.1,7,7,7h0c3.9,0,7-3.1,7-7v0c0-3.9-3.1-7-7-7h0C3.1,0,0,3.1,0,7z M7,12L7,12c-2.8,0-5-2.2-5-5v0 c0-2.8,2.2-5,5-5h0c2.8,0,5,2.2,5,5v0C12,9.8,9.8,12,7,12z"/></g></g>
<g transform="translate(272.25,740.25)"><g transform="scale(9)"><path d="M0,7L0,7c0,3.9,3.1,7,7,7h0c3.9,0,7-3.1,7-7v0c0-3.9-3.1-7-7-7h0C3.1,0,0,3.1,0,7z M7,12L7,12c-2.8,0-5-2.2-5-5v0 c0-2.8,2.2-5,5-5h0c2.8,0,5,2.2,5,5v0C12,9.8,9.8,12,7,12z"/></g></g>
<g transform="translate(308.25,308.25)"><g transform="scale(9)"><path d="M3.2,0.3l0.6,1.3C4,1.8,4.1,1.9,4.3,1.9l1.4,0.2c0.2,0,0.3,0.3,0.2,0.5l-1,1C4.7,3.7,4.7,3.9,4.7,4.1L5,5.5 c0,0.2-0.2,0.4-0.4,0.3L3.3,5.2c-0.2-0.1-0.4-0.1-0.6,0L1.4,5.8C1.2,5.9,1,5.8,1,5.5l0.2-1.4c0-0.2,0-0.4-0.2-0.5l-1-1 C-0.1,2.4,0,2.2,0.2,2.1l1.4-0.2c0.2,0,0.4-0.2,0.5-0.3l0.6-1.3C2.9,0.1,3.1,0.1,3.2,0.3z"/></g></g>
<g transform="translate(776.25,308.25)"><g transform="scale(9)"><path d="M3.2,0.3l0.6,1.3C4,1.8,4.1,1.9,4.3,1.9l1.4,0.2c0.2,0,0.3,0.3,0.2,0.5l-1,1C4.7,3.7,4.7,3.9,4.7,4.1L5,5.5 c0,0.2-0.2,0.4-0.4,0.3L3.3,5.2c-0.2-0.1-0.4-0.1-0.6,0L1.4,5.8C1.2,5.9,1,5.8,1,5.5l0.2-1.4c0-0.2,0-0.4-0.2-0.5l-1-1 C-0.1,2.4,0,2.2,0.2,2.1l1.4-0.2c0.2,0,0.4-0.2,0.5-0.3l0.6-1.3C2.9,0.1,3.1,0.1,3.2,0.3z"/></g></g>
<g transform="translate(308.25,776.25)"><g transform="scale(9)"><path d="M3.2,0.3l0.6,1.3C4,1.8,4.1,1.9,4.3,1.9l1.4,0.2c0.2,0,0.3,0.3,0.2,0.5l-1,1C4.7,3.7,4.7,3.9,4.7,4.1L5,5.5 c0,0.2-0.2,0.4-0.4,0.3L3.3,5.2c-0.2-0.1-0.4-0.1-0.6,0L1.4,5.8C1.2,5.9,1,5.8,1,5.5l0.2-1.4c0-0.2,0-0.4-0.2-0.5l-1-1 C-0.1,2.4,0,2.2,0.2,2.1l1.4-0.2c0.2,0,0.4-0.2,0.5-0.3l0.6-1.3C2.9,0.1,3.1,0.1,3.2,0.3z"/></g></g>
</g></g></mask></defs><rect width="670.76625" height="670.76625" fill="#ffffff" x="237.1875" y="237.1875"/><rect x="0" y="0" width="1138.5" height="1082.31875" mask="url(#qrmask)" fill="url(#pattern-gradient)"/><text fill="#FFFFFF" font-family="Arial, Helvetica, sans-serif" font-size="55.8971875px" textLength="575.89125" lengthAdjust="spacing" x="284.625" y="128.23329326923" transform="translate(0,872.85)">Scan me - P3</text></svg>
